<svg width="50" height="50" viewBox="0 0 50 50" fill="none" xmlns="http://www.w3.org/2000/svg">
<path d="M25 4.68115C20.053 4.68104 15.2673 6.44132 11.4995 9.647C7.73165 12.8527 5.22749 17.2945 4.43514 22.1777C3.64279 27.0608 4.61396 32.0666 7.17486 36.2992C9.73576 40.5318 13.7192 43.7149 18.4125 45.2791C19.4541 45.4624 19.8437 44.8374 19.8437 44.2895C19.8437 43.7957 19.8187 42.1541 19.8187 40.4103C14.5833 41.3728 13.2291 39.1332 12.8125 37.9624C12.3503 36.8223 11.6174 35.8119 10.6771 35.0187C9.9479 34.6291 8.90623 33.6645 10.65 33.6395C11.3164 33.7116 11.9556 33.9433 12.5134 34.3151C13.0712 34.6868 13.5311 35.1876 13.8541 35.7749C14.139 36.2867 14.5221 36.7373 14.9814 37.1008C15.4407 37.4644 15.9672 37.7337 16.5308 37.8933C17.0944 38.053 17.6839 38.0999 18.2656 38.0313C18.8474 37.9627 19.4098 37.78 19.9208 37.4937C20.0111 36.434 20.4834 35.4433 21.25 34.7062C16.6146 34.1853 11.7708 32.3895 11.7708 24.4207C11.7413 22.3499 12.5054 20.3462 13.9062 18.8207C13.2694 17.0212 13.3439 15.0463 14.1146 13.2999C14.1146 13.2999 15.8583 12.7541 19.8437 15.4353C23.2527 14.4977 26.8515 14.4977 30.2604 15.4353C34.2437 12.727 35.9896 13.2999 35.9896 13.2999C36.7604 15.0463 36.835 17.0212 36.1979 18.8207C37.603 20.3436 38.3677 22.349 38.3333 24.4207C38.3333 32.4145 33.4625 34.1853 28.8271 34.7062C29.3243 35.2101 29.7072 35.8151 29.9498 36.4801C30.1925 37.1452 30.2892 37.8546 30.2333 38.5603C30.2333 41.3478 30.2083 43.5874 30.2083 44.2895C30.2083 44.8374 30.5979 45.4874 31.6396 45.2791C36.3242 43.7018 40.2958 40.5111 42.8455 36.2765C45.3951 32.0418 46.3569 27.0389 45.5591 22.1607C44.7613 17.2825 42.2559 12.8466 38.49 9.64486C34.7241 6.44309 29.943 4.68384 25 4.68115Z" fill="white"/>
</svg>
