<svg width="35" height="33" viewBox="0 0 35 33" fill="none" xmlns="http://www.w3.org/2000/svg">
<path d="M17.4986 10.1436C15.7101 10.1436 13.9949 10.8134 12.7303 12.0058C11.4657 13.1981 10.7552 14.8153 10.7552 16.5016C10.7552 18.1878 11.4657 19.805 12.7303 20.9973C13.9949 22.1897 15.7101 22.8596 17.4986 22.8596C19.287 22.8596 21.0022 22.1897 22.2668 20.9973C23.5315 19.805 24.2419 18.1878 24.2419 16.5016C24.2419 14.8153 23.5315 13.1981 22.2668 12.0058C21.0022 10.8134 19.287 10.1436 17.4986 10.1436V10.1436ZM17.4986 20.6307C16.3367 20.6307 15.2224 20.1955 14.4009 19.4209C13.5793 18.6463 13.1177 17.5957 13.1177 16.5002C13.1177 15.4047 13.5793 14.3541 14.4009 13.5795C15.2224 12.8049 16.3367 12.3697 17.4986 12.3697C18.6605 12.3697 19.7747 12.8049 20.5963 13.5795C21.4179 14.3541 21.8794 15.4047 21.8794 16.5002C21.8794 17.5957 21.4179 18.6463 20.5963 19.4209C19.7747 20.1955 18.6605 20.6307 17.4986 20.6307V20.6307Z" fill="white"/>
<path d="M24.5087 11.3917C25.377 11.3917 26.0808 10.7281 26.0808 9.9095C26.0808 9.09087 25.377 8.42725 24.5087 8.42725C23.6405 8.42725 22.9366 9.09087 22.9366 9.9095C22.9366 10.7281 23.6405 11.3917 24.5087 11.3917Z" fill="white"/>
<path d="M29.944 8.40259C29.6064 7.58058 29.0905 6.8341 28.4293 6.21092C27.768 5.58773 26.9761 5.10158 26.1042 4.78359C25.0838 4.42245 24.0059 4.22718 22.9163 4.20609C21.5119 4.14834 21.0671 4.13184 17.5058 4.13184C13.9446 4.13184 13.4881 4.13184 12.0954 4.20609C11.0066 4.2261 9.92945 4.42141 8.91043 4.78359C8.03825 5.10121 7.24613 5.58723 6.58488 6.21046C5.92362 6.83369 5.40785 7.58037 5.07064 8.40259C4.68754 9.36455 4.48091 10.381 4.4596 11.4083C4.39689 12.7311 4.37793 13.1505 4.37793 16.5096C4.37793 19.8673 4.37793 20.295 4.4596 21.6108C4.48147 22.6393 4.6871 23.6541 5.07064 24.618C5.40879 25.4399 5.92507 26.1863 6.58648 26.8094C7.24789 27.4325 8.0399 27.9187 8.91189 28.237C9.92898 28.6126 11.0066 28.8219 12.0983 28.8557C13.5027 28.9135 13.9475 28.9313 17.5088 28.9313C21.07 28.9313 21.5265 28.9313 22.9192 28.8557C24.0087 28.8348 25.0866 28.64 26.1071 28.2796C26.9788 27.9608 27.7705 27.4743 28.4316 26.8509C29.0928 26.2276 29.6088 25.4811 29.9469 24.6592C30.3304 23.6967 30.5361 22.682 30.5579 21.6535C30.6206 20.3307 30.6396 19.9113 30.6396 16.5522C30.6396 13.1931 30.6396 12.7668 30.5579 11.451C30.541 10.4091 30.3332 9.3778 29.944 8.40259V8.40259ZM28.1677 21.5091C28.1583 22.3015 28.0049 23.0865 27.7142 23.8301C27.4952 24.3648 27.1599 24.8503 26.7299 25.2555C26.2999 25.6607 25.7847 25.9765 25.2175 26.1827C24.4376 26.4556 23.6139 26.6002 22.7821 26.6103C21.3967 26.6708 21.0058 26.686 17.4533 26.686C13.8979 26.686 13.5348 26.686 12.1231 26.6103C11.2918 26.6007 10.4684 26.4561 9.68918 26.1827C9.11997 25.9778 8.60272 25.6625 8.17089 25.2573C7.73906 24.852 7.40227 24.3658 7.1823 23.8301C6.89566 23.0945 6.74234 22.3187 6.72876 21.5352C6.66605 20.229 6.65147 19.8605 6.65147 16.511C6.65147 13.1601 6.65147 12.8177 6.72876 11.4853C6.73819 10.6934 6.89159 9.90879 7.1823 9.16571C7.6271 8.08084 8.53855 7.22696 9.68918 6.81171C10.4688 6.53965 11.2919 6.39504 12.1231 6.38409C13.51 6.32496 13.8994 6.30846 17.4533 6.30846C21.0073 6.30846 21.3719 6.30846 22.7821 6.38409C23.6139 6.39352 24.4378 6.53818 25.2175 6.81171C25.7847 7.01834 26.2998 7.33449 26.7298 7.73988C27.1597 8.14527 27.495 8.63093 27.7142 9.16571C28.0008 9.90127 28.1541 10.6771 28.1677 11.4606C28.2304 12.7682 28.2465 13.1353 28.2465 16.4862C28.2465 19.8357 28.2465 20.196 28.1838 21.5105H28.1677V21.5091Z" fill="white"/>
</svg>
