<svg width="30" height="29" viewBox="0 0 30 29" fill="none" xmlns="http://www.w3.org/2000/svg">
<g clip-path="url(#clip0_16_8)">
<path fill-rule="evenodd" clip-rule="evenodd" d="M25.9289 3.73905C24.7014 2.5503 23.2409 1.60771 21.632 0.965891C20.0231 0.324072 18.2978 -0.0042179 16.5561 4.09106e-05C9.25271 4.09106e-05 3.30726 5.71861 3.30431 12.7479C3.30431 14.9944 3.91391 17.187 5.07259 19.1211L3.1936 25.7258L10.218 23.9522C12.1611 24.9698 14.3379 25.5033 16.5502 25.5043H16.5561C23.858 25.5043 29.8035 19.7857 29.8065 12.7564C29.8115 11.0814 29.4714 9.42211 28.8058 7.87435C28.1403 6.32658 27.1625 4.92107 25.9289 3.73905ZM16.5561 23.3529H16.5517C14.579 23.3531 12.6426 22.8425 10.9457 21.8746L10.5442 21.6446L6.37593 22.6968L7.48738 18.7874L7.22612 18.3869C6.12321 16.6977 5.53936 14.7428 5.54197 12.7479C5.54492 6.90578 10.4852 2.15285 16.5605 2.15285C18.0074 2.14976 19.4406 2.42278 20.7771 2.95611C22.1135 3.48944 23.3268 4.27249 24.3466 5.25993C25.3719 6.24267 26.1846 7.41117 26.7376 8.69789C27.2907 9.98461 27.5732 11.364 27.5688 12.7564C27.5658 18.5985 22.6256 23.3529 16.5561 23.3529ZM22.5975 15.4162C22.2654 15.2557 20.6388 14.4861 20.3348 14.3795C20.0322 14.273 19.8122 14.2205 19.5908 14.5386C19.3694 14.8567 18.7347 15.5738 18.5414 15.7868C18.348 15.9998 18.1547 16.0254 17.824 15.8663C17.4934 15.7073 16.4262 15.3707 15.1613 14.2858C14.1768 13.4409 13.5125 12.3986 13.3192 12.0791C13.1258 11.7595 13.2985 11.5877 13.4653 11.4287C13.6144 11.2867 13.7959 11.0566 13.9613 10.8706C14.1266 10.6846 14.1812 10.5525 14.2919 10.3395C14.4026 10.1265 14.348 9.94044 14.2638 9.7814C14.1812 9.62093 13.5184 8.05319 13.2424 7.41558C12.9753 6.79786 12.7022 6.88022 12.4985 6.8717C12.2875 6.8634 12.0764 6.85961 11.8653 6.86034C11.6974 6.86446 11.5322 6.9019 11.3801 6.97032C11.2279 7.03874 11.0921 7.13667 10.9811 7.25796C10.6771 7.57747 9.82246 8.34714 9.82246 9.91488C9.82246 11.4826 11.0092 12.9978 11.1745 13.2108C11.3398 13.4238 13.5096 16.6403 16.8307 18.0206C17.6218 18.3486 18.2388 18.5446 18.7185 18.6923C19.5111 18.9351 20.2329 18.8996 20.8041 18.8186C21.4403 18.7278 22.7628 18.049 23.0388 17.3049C23.3149 16.5608 23.3149 15.9231 23.2322 15.7897C23.1496 15.6562 22.9267 15.5752 22.5975 15.4162Z" fill="white"/>
</g>
<defs>
<clipPath id="clip0_16_8">
<rect width="30" height="29" fill="white"/>
</clipPath>
</defs>
</svg>
